<svg xmlns="http://www.w3.org/2000/svg" width="32" height="32" viewBox="0 0 8.467 8.467"><g transform="translate(487.03 -1150.678)"><path fill="#586597" fill-rule="evenodd" style="line-height:normal;font-variant-ligatures:normal;font-variant-position:normal;font-variant-caps:normal;font-variant-numeric:normal;font-variant-alternates:normal;font-feature-settings:normal;text-indent:0;text-align:start;text-decoration-line:none;text-decoration-style:solid;text-decoration-color:#000;text-transform:none;text-orientation:mixed;shape-padding:0;isolation:auto;mix-blend-mode:normal" d="m -478.7168,1152.4648 c -0.0203,0 -0.0397,0.01 -0.0566,0.022 -0.6752,0.4592 -0.83997,1.1256 -0.84961,1.6504 v 1.3496 c -2.8e-4,0.074 0.0593,0.1331 0.13282,0.1328 h 0.13085 l 0.002,1.6036 c -2.8e-4,0.074 0.0593,0.1331 0.13281,0.1328 h 0.52734 c 0.0735,3e-4 0.1331,-0.059 0.13282,-0.1328 7.6e-4,-1.5464 -9.3e-4,-3.0928 -0.002,-4.6392 -10e-5,-0.08 -0.0709,-0.1419 -0.15039,-0.1309 z" color="#000" font-family="sans-serif" font-weight="400" overflow="visible" white-space="normal"/><path fill="#e6f4f6" fill-rule="evenodd" style="line-height:normal;font-variant-ligatures:normal;font-variant-position:normal;font-variant-caps:normal;font-variant-numeric:normal;font-variant-alternates:normal;font-feature-settings:normal;text-indent:0;text-align:start;text-decoration-line:none;text-decoration-style:solid;text-decoration-color:#000;text-transform:none;text-orientation:mixed;shape-padding:0;isolation:auto;mix-blend-mode:normal" d="m -478.8341,1152.8696 0.004,2.4878 h -0.52933 v -1.2148 c 0.004,-0.5935 0.24477,-1.0297 0.52526,-1.273 z" color="#000" font-family="sans-serif" font-weight="400" overflow="visible" white-space="normal"/><path fill="#91a6b8" fill-rule="evenodd" style="line-height:normal;font-variant-ligatures:normal;font-variant-position:normal;font-variant-caps:normal;font-variant-numeric:normal;font-variant-alternates:normal;font-feature-settings:normal;text-indent:0;text-align:start;text-decoration-line:none;text-decoration-style:solid;text-decoration-color:#000;text-transform:none;text-orientation:mixed;shape-padding:0;isolation:auto;mix-blend-mode:normal" d="m -479.09375,1155.623 h 0.26367 v 1.4708 h -0.26172 z" color="#000" font-family="sans-serif" font-weight="400" overflow="visible" white-space="normal"/><path fill="#586597" style="line-height:normal;font-variant-ligatures:normal;font-variant-position:normal;font-variant-caps:normal;font-variant-numeric:normal;font-variant-alternates:normal;font-feature-settings:normal;text-indent:0;text-align:start;text-decoration-line:none;text-decoration-style:solid;text-decoration-color:#000;text-transform:none;text-orientation:mixed;shape-padding:0;isolation:auto;mix-blend-mode:normal" d="m -482.73242,1152.2656 c -1.45965,0 -2.64644,1.1868 -2.64649,2.6465 -10e-6,1.4597 1.18679,2.6445 2.64649,2.6445 1.45969,0 2.64649,-1.1848 2.64648,-2.6445 -5e-5,-1.4597 -1.18683,-2.6465 -2.64648,-2.6465 z" color="#000" font-family="sans-serif" font-weight="400" overflow="visible" white-space="normal"/><path fill="#d7edf2" style="line-height:normal;font-variant-ligatures:normal;font-variant-position:normal;font-variant-caps:normal;font-variant-numeric:normal;font-variant-alternates:normal;font-feature-settings:normal;text-indent:0;text-align:start;text-decoration-line:none;text-decoration-style:solid;text-decoration-color:#000;text-transform:none;text-orientation:mixed;shape-padding:0;isolation:auto;mix-blend-mode:normal" d="m -482.73242,1152.5293 c 1.31666,0 2.38081,1.0661 2.38086,2.3828 1e-5,1.3167 -1.06416,2.3809 -2.38086,2.3809 -1.3167,0 -2.38087,-1.0642 -2.38086,-2.3809 4e-5,-1.3167 1.0642,-2.3828 2.38086,-2.3828 z" color="#000" font-family="sans-serif" font-weight="400" overflow="visible" white-space="normal"/><path fill="#586597" style="line-height:normal;font-variant-ligatures:normal;font-variant-position:normal;font-variant-caps:normal;font-variant-numeric:normal;font-variant-alternates:normal;font-feature-settings:normal;text-indent:0;text-align:start;text-decoration-line:none;text-decoration-style:solid;text-decoration-color:#000;text-transform:none;text-orientation:mixed;shape-padding:0;isolation:auto;mix-blend-mode:normal" d="m -482.73242,1153.0586 c -1.0213,0 -1.85155,0.8322 -1.85156,1.8535 10e-6,1.0213 0.83026,1.8516 1.85156,1.8516 1.0213,0 1.85154,-0.8303 1.85156,-1.8516 -2e-5,-1.0213 -0.83026,-1.8535 -1.85156,-1.8535 z" color="#000" font-family="sans-serif" font-weight="400" overflow="visible" white-space="normal"/><path fill="#e6f4f6" style="line-height:normal;font-variant-ligatures:normal;font-variant-position:normal;font-variant-caps:normal;font-variant-numeric:normal;font-variant-alternates:normal;font-feature-settings:normal;text-indent:0;text-align:start;text-decoration-line:none;text-decoration-style:solid;text-decoration-color:#000;text-transform:none;text-orientation:mixed;shape-padding:0;isolation:auto;mix-blend-mode:normal" d="m -482.73242,1153.3242 c 0.87831,0 1.58788,0.7096 1.58789,1.5879 -1e-5,0.8783 -0.70958,1.5859 -1.58789,1.5859 -0.87831,0 -1.58788,-0.7076 -1.58789,-1.5859 1e-5,-0.8783 0.70958,-1.5879 1.58789,-1.5879 z" color="#000" font-family="sans-serif" font-weight="400" overflow="visible" white-space="normal"/><path fill="#586597" style="line-height:normal;font-variant-ligatures:normal;font-variant-position:normal;font-variant-caps:normal;font-variant-numeric:normal;font-variant-alternates:normal;font-feature-settings:normal;text-indent:0;text-align:start;text-decoration-line:none;text-decoration-style:solid;text-decoration-color:#000;text-transform:none;text-orientation:mixed;shape-padding:0;isolation:auto;mix-blend-mode:normal" d="m -584.5,3054.752 c -0.96884,0 -1.70906,0.6751 -2.18555,1.4843 -0.47644,0.8092 -0.74459,1.7977 -0.80468,2.6953 -0.0665,0.9933 0.23162,1.8431 0.78906,2.4278 0.55752,0.5843 1.35172,0.8926 2.20117,0.8926 0.84937,0 1.64166,-0.3094 2.19922,-0.8926 0.55755,-0.5847 0.85547,-1.4345 0.78906,-2.4278 -0.0601,-0.8976 -0.32813,-1.8861 -0.80469,-2.6953 -0.47644,-0.8092 -1.21482,-1.4843 -2.18359,-1.4843 z" color="#000" font-family="sans-serif" font-weight="400" overflow="visible" transform="matrix(.26458 0 0 .26458 -328.083 345.683)" white-space="normal"/><path fill="#fbb490" style="line-height:normal;font-variant-ligatures:normal;font-variant-position:normal;font-variant-caps:normal;font-variant-numeric:normal;font-variant-alternates:normal;font-feature-settings:normal;text-indent:0;text-align:start;text-decoration-line:none;text-decoration-style:solid;text-decoration-color:#000;text-transform:none;text-orientation:mixed;shape-padding:0;isolation:auto;mix-blend-mode:normal" d="m -584.5,3055.75 c 0.49625,0 0.94444,0.3585 1.32031,0.9961 0.0454,0.077 0.0835,0.1667 0.125,0.25 h -2.89062 c 0.0415,-0.083 0.0777,-0.173 0.12304,-0.25 0.37569,-0.6387 0.82594,-0.9961 1.32227,-0.9961 z" color="#000" font-family="sans-serif" font-weight="400" overflow="visible" transform="matrix(.26458 0 0 .26458 -328.083 345.683)" white-space="normal"/><path fill="#eef396" style="line-height:normal;font-variant-ligatures:normal;font-variant-position:normal;font-variant-caps:normal;font-variant-numeric:normal;font-variant-alternates:normal;font-feature-settings:normal;text-indent:0;text-align:start;text-decoration-line:none;text-decoration-style:solid;text-decoration-color:#000;text-transform:none;text-orientation:mixed;shape-padding:0;isolation:auto;mix-blend-mode:normal" d="m -586.31836,3058 h 3.63672 c 0.0886,0.3377 0.15256,0.6801 0.17383,0.998 h -3.98633 c 0.0213,-0.3179 0.0872,-0.6603 0.17578,-0.998 z" color="#000" font-family="sans-serif" font-weight="400" overflow="visible" transform="matrix(.26458 0 0 .26458 -328.083 345.683)" white-space="normal"/><path fill="#bcf3d3" style="line-height:normal;font-variant-ligatures:normal;font-variant-position:normal;font-variant-caps:normal;font-variant-numeric:normal;font-variant-alternates:normal;font-feature-settings:normal;text-indent:0;text-align:start;text-decoration-line:none;text-decoration-style:solid;text-decoration-color:#000;text-transform:none;text-orientation:mixed;shape-padding:0;isolation:auto;mix-blend-mode:normal" d="m -586.37695,3060.002 h 3.7539 c -0.0918,0.2685 -0.22867,0.4899 -0.40039,0.6699 -0.35149,0.3704 -0.86091,0.5761 -1.47656,0.5761 -0.61572,0 -1.12499,-0.208 -1.47656,-0.5761 -0.17115,-0.1804 -0.3086,-0.4027 -0.40039,-0.6699 z" color="#000" font-family="sans-serif" font-weight="400" overflow="visible" transform="matrix(.26458 0 0 .26458 -328.083 345.683)" white-space="normal"/><g transform="translate(.926 .33)"><path fill="#586597" style="line-height:normal;font-variant-ligatures:normal;font-variant-position:normal;font-variant-caps:normal;font-variant-numeric:normal;font-variant-alternates:normal;font-feature-settings:normal;text-indent:0;text-align:start;text-decoration-line:none;text-decoration-style:solid;text-decoration-color:#000;text-transform:none;text-orientation:mixed;shape-padding:0;isolation:auto;mix-blend-mode:normal" d="m -600.25977,3050.2422 c -0.015,0 -0.03,6e-4 -0.0449,0 -0.25379,0.03 -0.44416,0.2465 -0.4414,0.502 -10e-4,1.7556 0,3.5086 0,5.2559 0,0.9607 0.78717,1.75 1.74804,1.75 v 2.998 h -1.0039 v 5.8164 c 0,0.3742 0.21952,0.6905 0.48828,0.8848 0.26872,0.1965 0.59978,0.2949 0.95898,0.2949 h 0.11133 c 0.35868,0 0.68988,-0.094 0.95898,-0.2871 0.26911,-0.1928 0.48832,-0.5173 0.48829,-0.8926 V 3060.75 H -598 v -2.998 c 0.96087,0 1.74805,-0.7893 1.74805,-1.75 7.2e-4,-1.7508 0,-3.5005 0,-5.2558 0.003,-0.2989 -0.25548,-0.5335 -0.55274,-0.502 -0.25457,0.029 -0.44601,0.2458 -0.44336,0.502 v 3.2559 H -598 v -3.2559 c 0.003,-0.2998 -0.2567,-0.5348 -0.55469,-0.502 -0.25457,0.029 -0.44601,0.2458 -0.44336,0.502 v 3.2559 H -599.75 v -3.2559 c 0.002,-0.2815 -0.2283,-0.5094 -0.50977,-0.5039 z" color="#000" font-family="sans-serif" font-weight="400" overflow="visible" transform="matrix(.26458 0 0 .26458 -329.01 345.353)" white-space="normal"/><path fill="#e6f4f6" style="line-height:normal;font-variant-ligatures:normal;font-variant-position:normal;font-variant-caps:normal;font-variant-numeric:normal;font-variant-alternates:normal;font-feature-settings:normal;text-indent:0;text-align:start;text-decoration-line:none;text-decoration-style:solid;text-decoration-color:#000;text-transform:none;text-orientation:mixed;shape-padding:0;isolation:auto;mix-blend-mode:normal" d="m -599.75,3054.998 h 2.50195 c 0,0 0,0.5425 0,1.004 0,0.424 -0.32781,0.746 -0.75195,0.746 h -0.99805 c -0.42417,0 -0.75195,-0.3216 -0.75195,-0.746 0,-0.4615 0,-1.004 0,-1.004 z" color="#000" font-family="sans-serif" font-weight="400" overflow="visible" transform="matrix(.26458 0 0 .26458 -329.01 345.353)" white-space="normal"/><path fill="#91a6b8" style="line-height:normal;font-variant-ligatures:normal;font-variant-position:normal;font-variant-caps:normal;font-variant-numeric:normal;font-variant-alternates:normal;font-feature-settings:normal;text-indent:0;text-align:start;text-decoration-line:none;text-decoration-style:solid;text-decoration-color:#000;text-transform:none;text-orientation:mixed;shape-padding:0;isolation:auto;mix-blend-mode:normal" d="M -598.99805,3061.752 H -598 v 4.8144 c 0,0 0.006,0.037 -0.0684,0.082 -0.0726,0.053 -0.21021,0.1016 -0.375,0.1016 h -0.11133 c -0.16441,0 -0.30401,-0.049 -0.37695,-0.1016 -0.0729,-0.053 -0.0664,-0.078 -0.0664,-0.082 z" color="#000" font-family="sans-serif" font-weight="400" overflow="visible" transform="matrix(.26458 0 0 .26458 -329.01 345.353)" white-space="normal"/></g></g></svg>